<?xml version="1.0" encoding="utf-8"?>
<!-- Generator: Adobe Illustrator 27.5.0, SVG Export Plug-In . SVG Version: 6.00 Build 0)  -->
<svg version="1.1" xmlns="http://www.w3.org/2000/svg" xmlns:xlink="http://www.w3.org/1999/xlink" x="0px" y="0px"
	 viewBox="0 0 750 500" style="enable-background:new 0 0 750 500;" xml:space="preserve">
<g id="BACKGROUND">
	<rect style="fill:#FFFFFF;" width="750" height="500"/>
</g>
<g id="OBJECTS">
	<g>
		<path style="fill:#EDEDED;" d="M83.441,352.182c0-2.098-14.545-3.798-32.486-3.798c-17.942,0-32.486,1.701-32.486,3.798
			c0,2.098,14.545,3.798,32.486,3.798C68.897,355.98,83.441,354.279,83.441,352.182z"/>
		<g>
			<g>
				<path style="fill:#FFBDA8;" d="M66.414,325.702c3.826,2.785,3.485,9.385,3.979,10.07c0.493,0.685,1.713,1.479,2.523,2.716
					c0.811,1.237,0.484,4.502-0.851,5.666c-0.726,0.633-1.835,1.064-2.797,1.026c-0.609-0.024-1.027-0.527-1.335-1.055
					c-1.043,0.185-1.854-0.27-1.931-1.497c-0.076-1.21,0.342-2.101-0.374-3.058c-0.717-0.957-3.413-6.463-4.11-9.123
					C60.274,325.706,64.746,324.488,66.414,325.702z"/>
			</g>
			<path style="fill:#FFBDA8;" d="M55.76,340.016c4.732,0.603,9.704,4.405,11.905,4.724c2.201,0.318,3.977-2.432,5.727-2.79
				c3.25-0.664,2.434,3.11,1.565,5.769c-0.869,2.659-1.388,3.941-3.052,4.405c-2.302,0.641-3.814-0.496-5.578-0.703
				c-1.764-0.207-12.348,0.297-14.898-2.311C47.527,345.119,49.807,339.257,55.76,340.016z"/>
			<path style="fill:#E6E8F4;" d="M33.895,335.449c-1.987,0.514-4.963,12.792,3.47,16.7c3.004,1.392,13.076,1.462,19.03,1.289
				c13.283-0.386,14.944-16.519,13.042-16.75C65.307,336.184,33.895,335.449,33.895,335.449z"/>
			<path style="fill:#FFCDC0;" d="M38.309,319.996c-3.523,4.868-4.137,9.11-4.446,16.143c-0.309,7.032,28.435,7.505,33.381,3.718
				c4.946-3.787-0.629-17.255-4.792-19.938C58.508,317.375,41.832,315.127,38.309,319.996z"/>
			<path style="fill:#FFCDC0;" d="M40.968,342.508c4.733,0.603,9.704,4.405,11.905,4.724c2.201,0.318,3.977-2.432,5.727-2.79
				c3.25-0.664,2.434,3.11,1.565,5.769c-0.869,2.659-1.388,3.941-3.052,4.405c-2.302,0.641-3.814-0.496-5.578-0.703
				c-1.764-0.207-12.348,0.298-14.898-2.311C32.736,347.611,35.016,341.749,40.968,342.508z"/>
			<path style="fill:#FFBDA8;" d="M68.349,329.693c-1.28-4.243-3.754-8.385-5.867-9.747c-3.944-2.542-20.62-4.791-24.143,0.078
				c-2.251,3.11-3.312,5.968-3.867,9.458c1.866-1.476,4.606-0.44,6.247,2.036c2.035,3.07,12.26,4.512,11.039,1.319
				C50.435,329.383,64.732,332.746,68.349,329.693z"/>
			<g>
				<path style="fill:#FFD4C8;" d="M40.384,330.713c1.536,4.517,8.221,8.04,8.808,8.763c0.587,0.723,0.994,3.478,2.078,4.697
					c1.084,1.219,4.655,1.812,6.28,0.725c0.883-0.591,1.661-1.648,1.899-2.684c0.15-0.656-0.265-1.246-0.739-1.727
					c0.497-1.057,0.246-2.053-1.038-2.488c-1.267-0.429-2.336-0.241-3.149-1.28c-0.813-1.039-4.962-7.546-7.595-9.055
					C42.236,324.977,39.651,328.558,40.384,330.713z"/>
				<path style="opacity:0.6;fill:#FFBDA8;" d="M55.323,339.411c0.087,0.232,2.442,0.273,3.386,1.077
					c0.315-0.669,0.327-1.313-0.03-1.806C59.023,339.537,55.152,339.049,55.323,339.411z"/>
			</g>
			<g>
				<path style="fill:#FFCDC0;" d="M72.498,284.369c-4.83-10.543-30.277-12.628-38.715,0.541
					c-4.267,6.659-1.108,16.772,0.336,21.947c-1.246-1.449-4.26-1.159-5.146,0.994c-1.667,4.053,4.132,8.975,6.676,5.98
					c1.787,9.733,14.523,18.819,29.164,13.477c11.791-4.302,6.839-13.649,7.019-20.118
					C71.921,303.974,76.111,292.255,72.498,284.369z"/>
				<g>
					<path style="fill:#FF95AB;" d="M71.567,320.671c-0.255-3.58-2.476-2.22-7.542-1.859c-5.066,0.361-9.278-0.974-10.284,2.989
						c-0.883,3.479,4.587,6.847,9.653,6.486C68.46,327.925,71.823,324.251,71.567,320.671z"/>
					<g>
						<path style="fill:#FF95AB;" d="M64.206,321.357c-2.23,0.159-3.914,2.102-3.755,4.332c0.159,2.23,2.102,3.914,4.332,3.755
							c2.23-0.159,3.915-2.102,3.756-4.332C68.38,322.882,66.436,321.198,64.206,321.357z M62.199,325.564
							c-0.09-1.266,0.866-2.369,2.132-2.46c1.266-0.09,2.37,0.866,2.46,2.132c0.09,1.266-0.866,2.369-2.132,2.46
							C63.392,327.787,62.289,326.83,62.199,325.564z"/>
					</g>
					<g style="opacity:0.5;">
						<path style="fill:#FF95AB;" d="M64.206,321.357c-2.23,0.159-3.914,2.102-3.755,4.332c0.159,2.23,2.102,3.914,4.332,3.755
							c2.23-0.159,3.915-2.102,3.756-4.332C68.38,322.882,66.436,321.198,64.206,321.357z M62.199,325.564
							c-0.09-1.266,0.866-2.369,2.132-2.46c1.266-0.09,2.37,0.866,2.46,2.132c0.09,1.266-0.866,2.369-2.132,2.46
							C63.392,327.787,62.289,326.83,62.199,325.564z"/>
					</g>
					<path style="fill:#FFFFFF;" d="M66.797,321.637c-0.101-1.413-1.328-2.476-2.74-2.375c-1.413,0.101-2.476,1.328-2.375,2.74
						c0.101,1.413,1.328,2.476,2.74,2.375C65.834,324.276,66.898,323.049,66.797,321.637z"/>
				</g>
				<path style="fill:#FFBDA8;" d="M73.946,291.608c-3.967-0.281-20.556-1.226-26.958,2.05
					c-7.295,3.733-13.091,10.572-13.091,10.572l-0.604-0.35c0.294,1.101,0.584,2.113,0.826,2.978c0,0,1.014,0.811,1.217,2.26
					c0,0,1.681-4.513,8.486-8.573c6.805-4.061,8.728-1.862,8.728-1.862l1.421-0.594c0,0-0.315-4.041,19.78-2.157
					C73.902,294.513,73.975,293.056,73.946,291.608z"/>
				<g>
					<path style="fill:#FF95AB;" d="M34.12,306.858c0,0,14.516-18.013,39.817-11.364c0,0,1.924-3.938,0.064-6.309
						c-2.385-3.041-35.563-3.54-40.866,14.097C33.134,303.281,33.047,305.438,34.12,306.858z"/>
					<path style="opacity:0.5;fill:#FF95AB;" d="M56.706,288.152c-8.239,1.198-17.211,4.366-21.58,10.932
						c1.681,0.276,1.068,2.833,2.612,4.232c3.535-2.983,9.597-7.008,17.878-8.602C56.498,292.64,56.958,290.411,56.706,288.152z"/>
				</g>
				<g>
					<path style="fill:#FF95AB;" d="M51.41,290.057c-1.067-0.349-0.306-2.051-1.624-2.694c-1.318-0.644-2.205,0.997-3.136,0.371
						c-1.304-0.878-3.828-0.555-3.973,2.883c-0.086,2.044,1.219,4.012,3.073,4.999c1.917,0.854,4.273,0.673,5.831-0.652
						C54.201,292.734,52.903,290.545,51.41,290.057z"/>
					<path style="opacity:0.5;fill:#FF95AB;" d="M42.923,289.195c-0.132,0.401-0.223,0.867-0.247,1.422
						c-0.086,2.044,1.219,4.012,3.073,4.998c1.917,0.854,4.273,0.673,5.831-0.652c0.516-0.439,0.875-0.875,1.116-1.298
						C49.299,293.31,45.191,291.857,42.923,289.195z"/>
					<path style="fill:#FF95AB;" d="M48.077,303.354c0.869-0.711,1.892,0.848,3.145,0.085c1.253-0.763,0.349-2.395,1.379-2.841
						c1.442-0.625,2.531-2.924-0.286-4.901c-1.675-1.175-4.037-1.136-5.866-0.107c-1.754,1.154-2.871,3.235-2.595,5.262
						C44.317,304.262,46.86,304.349,48.077,303.354z"/>
					<path style="opacity:0.5;fill:#FF95AB;" d="M52.95,296.217c-0.188-0.175-0.392-0.348-0.636-0.52
						c-1.675-1.175-4.037-1.136-5.866-0.107c-1.754,1.154-2.871,3.235-2.595,5.262c0.096,0.702,0.283,1.256,0.525,1.696
						C44.189,301.145,49.629,295.413,52.95,296.217z"/>
					<path style="fill:#FF95AB;" d="M38.338,298.599c0.026-1.122-1.832-0.97-2.001-2.427c-0.169-1.457,1.674-1.748,1.392-2.835
						c-0.394-1.521,0.749-3.794,4.04-2.789c1.956,0.598,3.379,2.484,3.693,4.559c0.168,2.092-0.785,4.254-2.553,5.283
						C39.935,302.122,38.302,300.17,38.338,298.599z"/>
					<path style="opacity:0.5;fill:#FF95AB;" d="M41.024,290.375c2.142,1.566,2.087,8.217,0.461,10.599
						c0.434-0.1,0.907-0.283,1.423-0.584c1.768-1.029,2.722-3.19,2.553-5.283c-0.314-2.076-1.737-3.961-3.693-4.559
						c-0.158-0.048-0.307-0.083-0.456-0.116C41.215,290.411,41.118,290.391,41.024,290.375z"/>
					<path style="fill:#FF95AB;" d="M47.228,292.622c-1.899-0.927-3.987,0.171-3.906,0.372c0.062,0.154,1.694-0.308,3.456,0.552
						c1.761,0.86,2.401,2.431,2.56,2.385C49.545,295.871,49.126,293.548,47.228,292.622z"/>
					<path style="fill:#FF95AB;" d="M44.59,298.159c1.583,0.773,3.391-0.279,3.329-0.457c-0.048-0.136-1.496,0.428-2.965-0.289
						c-1.469-0.717-1.915-2.206-2.052-2.16C42.724,295.314,43.007,297.386,44.59,298.159z"/>
					<path style="fill:#FFFFFF;" d="M46.564,295.474c-0.065-0.471-0.507-0.616-0.85-0.606c-0.372,0.011-0.754,0.384-0.737,0.782
						c0.025,0.584,0.542,0.838,0.908,0.785C46.264,296.38,46.638,296.006,46.564,295.474z"/>
				</g>
			</g>
		</g>
	</g>
	<g>
		<ellipse style="fill:#EDEDED;" cx="182.916" cy="353.122" rx="89.826" ry="5.278"/>
		<g>
			<g>
				<path style="fill:#FFCDC0;" d="M196.955,305.066c-0.445,9.146,5.187,16.566,5.539,18.561c0.352,1.995-2.204,4.667-1.852,9.36
					c0.352,4.694,2.498,8.894,1.872,10.849c-0.626,1.956-1.891,4.322,0.701,5.563c1.933,0.926,9.667,1.458,11.714,1.113
					c2.84-0.572,5.421-2.586,3.465-3.916c-1.956-1.33-6.806-2.249-7.241-4.009c-0.499-2.017,3.447-13.807,3.995-18.109
					s-0.214-18.821-1.27-22.752C211.532,292.995,197.515,293.565,196.955,305.066z"/>
				<path style="fill:#FFBDA8;" d="M202.521,324.105c2.759-3.056,8.021-7.491,12.713-8.465c-0.205-5.463-0.728-11.569-1.357-13.913
					c-2.346-8.731-16.363-8.161-16.922,3.339c-0.445,9.146,5.187,16.566,5.539,18.56
					C202.522,323.781,202.526,323.941,202.521,324.105z"/>
				<path style="fill:#E6E8F4;" d="M176.86,293.007c0,0,1.332,22.765,21.433,22.765c20.101,0,20.101-22.765,20.101-22.765H176.86z"
					/>
				<path style="fill:#FFCDC0;" d="M182.31,306.599c-1.004,9.296,4.29,17.198,4.529,19.252c0.239,2.054-2.528,4.624-2.451,9.43
					c0.076,4.805,2.011,9.216,1.255,11.172c-0.756,1.956-2.187,4.292,0.38,5.713c1.915,1.06,9.766,2.068,11.873,1.84
					c2.929-0.411,5.681-2.31,3.768-3.783c-1.913-1.473-6.802-2.702-7.14-4.522c-0.387-2.087,4.345-13.866,5.162-18.219
					c0.817-4.352,1.684-17.004,0.844-21.074C198.664,297.367,183.572,294.91,182.31,306.599z"/>
			</g>
			<path style="fill:#FFBDA8;" d="M197.039,272.934c2.129,5.062,15.069,6.85,18.995,9.132c4.186,2.432,17.436,1.954,19.16,1.89
				c1.724-0.063,3.176,1.137,6.271,1.238c1.973,0.065,3.399-0.569,5.748-0.453c2.282,0.112,5.772,0.831,6.539,0.206
				c1.992-1.625-7.027-6.178-10.64-6.239c-2.248-0.038-5.533,0.18-7.245-0.276c-1.116-0.297-14.186-3.849-15.353-4.366
				c-1.658-0.735-9.939-7.498-15.421-9.456C198.294,262.18,194.909,267.872,197.039,272.934z"/>
			<path style="fill:#2F114D;" d="M241.746,350.329c0-3.03-2.457-5.487-5.487-5.487c-3.03,0-5.487,2.457-5.487,5.487
				s2.457,5.487,5.487,5.487C239.29,355.816,241.746,353.359,241.746,350.329z"/>
			<path style="fill:#2F114D;" d="M128.315,350.329c0-3.03-2.457-5.487-5.487-5.487c-3.03,0-5.487,2.457-5.487,5.487
				s2.457,5.487,5.487,5.487C125.858,355.816,128.315,353.359,128.315,350.329z"/>
			<path style="fill:#E6E8F4;" d="M237.079,346.112H119.368c-2.115,0-4.087-1.045-5.275-2.794c-1.188-1.749-1.432-3.967-0.652-5.932
				l12.15-30.642c5.305-13.381,18.034-22.026,32.427-22.026h15.063v5.505h-15.063c-12.122,0-22.841,7.282-27.31,18.55l-12.15,30.642
				c-0.148,0.373-0.007,0.667,0.089,0.81c0.097,0.142,0.319,0.382,0.721,0.382h117.711V346.112z"/>
			<path style="fill:#ACB3D8;" d="M133.952,337.574h-7.874c-1.692,0-2.851-1.706-2.227-3.279l2.077-5.238
				c0.683-1.723-0.587-3.593-2.44-3.593h-6.799c-1.076,0-2.044,0.657-2.44,1.658l-3.54,8.927c-0.896,2.259-1.012,4.794-0.131,7.058
				c1.448,3.717,4.961,6.038,8.79,6.038h14.583c1.45,0,2.625-1.175,2.625-2.625v-6.321
				C136.577,338.749,135.401,337.574,133.952,337.574z"/>
			<path style="fill:#ACB3D8;" d="M243.711,337.574h-14.903c-1.45,0-2.625,1.176-2.625,2.625v6.321c0,1.45,1.175,2.625,2.625,2.625
				h14.903c1.45,0,2.625-1.175,2.625-2.625v-6.321C246.336,338.749,245.161,337.574,243.711,337.574z"/>
			<path style="fill:#FF95AB;" d="M192.387,255.265c-18.948,0-13.911,33.957-13.911,33.957h37.558
				C216.035,289.222,207.945,255.265,192.387,255.265z"/>
			<path style="fill:#ACB3D8;" d="M260.031,282.496H161.5v10.51h90.163c4.622,0,8.368-3.746,8.368-8.368V282.496z"/>
			<path style="fill:#FFCDC0;" d="M184.153,272.882c2.34,5.09,15.594,6.481,19.674,8.677c4.349,2.34,17.844,1.41,19.6,1.287
				c1.756-0.122,3.276,1.053,6.436,1.053c2.014,0,3.447-0.693,5.846-0.654c2.331,0.038,5.914,0.654,6.674-0.009
				c1.977-1.723-7.372-6.065-11.058-6.007c-2.293,0.036-5.636,0.368-7.397-0.039c-1.148-0.266-14.593-3.451-15.801-3.939
				c-1.715-0.694-10.385-7.313-16.04-9.127C185.074,261.875,181.813,267.792,184.153,272.882z"/>
			<g>
				<path style="fill:#FFBDA8;" d="M189.972,248.448c0,0-0.98,6.128-3.174,9.305c0,0,7.344,8.016,17.819,8.32
					c1.564,0.046,0.38-4.648,0.207-9.029L189.972,248.448z"/>
				<g>
					<path style="fill:#FFCDC0;" d="M222.19,217.243c-4.83-10.544-30.277-12.628-38.715,0.541
						c-4.267,6.659-1.108,16.772,0.337,21.947c-1.246-1.449-4.26-1.159-5.146,0.994c-1.667,4.053,4.132,8.975,6.676,5.98
						c1.787,9.732,14.523,18.819,29.164,13.476c11.791-4.302,6.839-13.649,7.019-20.118
						C221.613,236.847,225.803,225.128,222.19,217.243z"/>
					<path style="fill:#FFBDA8;" d="M223.638,224.482c-3.967-0.281-20.556-1.226-26.958,2.05
						c-7.295,3.733-13.091,10.572-13.091,10.572l-0.604-0.35c0.294,1.101,0.584,2.113,0.826,2.978c0,0,1.014,0.811,1.217,2.26
						c0,0,1.681-4.513,8.486-8.573c6.805-4.061,8.728-1.862,8.728-1.862l1.421-0.594c0,0-0.315-4.041,19.78-2.157
						C223.594,227.387,223.667,225.93,223.638,224.482z"/>
					<g>
						<path style="fill:#FF95AB;" d="M183.811,239.731c0,0,14.516-18.014,39.817-11.364c0,0,1.924-3.938,0.064-6.309
							c-2.385-3.041-35.563-3.54-40.866,14.097C182.826,236.155,182.739,238.311,183.811,239.731z"/>
						<path style="opacity:0.5;fill:#FF95AB;" d="M206.398,221.026c-8.24,1.197-17.211,4.366-21.58,10.932
							c1.681,0.277,1.068,2.833,2.613,4.232c3.535-2.983,9.597-7.008,17.879-8.602C206.19,225.514,206.65,223.285,206.398,221.026z"
							/>
					</g>
					<g>
						<path style="fill:#FF95AB;" d="M201.101,222.931c-1.067-0.349-0.306-2.051-1.624-2.694c-1.318-0.643-2.205,0.997-3.136,0.37
							c-1.304-0.877-3.828-0.555-3.973,2.883c-0.087,2.044,1.219,4.012,3.072,4.999c1.918,0.855,4.273,0.673,5.831-0.652
							C203.893,225.608,202.595,223.419,201.101,222.931z"/>
						<path style="opacity:0.5;fill:#FF95AB;" d="M192.615,222.068c-0.132,0.401-0.223,0.867-0.247,1.422
							c-0.087,2.044,1.219,4.012,3.072,4.998c1.918,0.855,4.273,0.673,5.831-0.652c0.516-0.439,0.875-0.875,1.116-1.298
							C198.991,226.183,194.883,224.731,192.615,222.068z"/>
						<path style="fill:#FF95AB;" d="M197.768,236.227c0.869-0.711,1.892,0.848,3.145,0.085c1.253-0.763,0.349-2.395,1.379-2.841
							c1.442-0.625,2.531-2.924-0.286-4.901c-1.675-1.175-4.036-1.136-5.866-0.107c-1.754,1.154-2.871,3.235-2.595,5.262
							C194.009,237.135,196.552,237.222,197.768,236.227z"/>
						<path style="opacity:0.5;fill:#FF95AB;" d="M202.642,229.09c-0.188-0.174-0.392-0.348-0.636-0.519
							c-1.675-1.175-4.036-1.136-5.866-0.107c-1.754,1.154-2.871,3.235-2.595,5.262c0.096,0.702,0.283,1.257,0.525,1.696
							C193.881,234.019,199.321,228.286,202.642,229.09z"/>
						<path style="fill:#FF95AB;" d="M188.03,231.473c0.026-1.122-1.833-0.97-2.001-2.427c-0.169-1.457,1.674-1.748,1.392-2.834
							c-0.394-1.521,0.749-3.794,4.04-2.789c1.956,0.598,3.379,2.484,3.693,4.559c0.169,2.092-0.785,4.254-2.553,5.283
							C189.627,234.996,187.994,233.044,188.03,231.473z"/>
						<path style="opacity:0.5;fill:#FF95AB;" d="M190.716,223.249c2.142,1.566,2.087,8.217,0.461,10.6
							c0.434-0.1,0.907-0.283,1.423-0.584c1.768-1.029,2.722-3.19,2.553-5.283c-0.314-2.076-1.737-3.962-3.693-4.559
							c-0.158-0.048-0.307-0.083-0.456-0.116C190.907,223.285,190.81,223.265,190.716,223.249z"/>
						<path style="fill:#FF95AB;" d="M196.919,225.495c-1.899-0.927-3.987,0.171-3.906,0.372c0.062,0.154,1.694-0.308,3.456,0.551
							c1.761,0.86,2.401,2.431,2.56,2.386C199.237,228.744,198.818,226.422,196.919,225.495z"/>
						<path style="fill:#FF95AB;" d="M194.282,231.033c1.583,0.773,3.391-0.279,3.329-0.457c-0.048-0.136-1.496,0.428-2.965-0.289
							c-1.469-0.717-1.915-2.206-2.051-2.16C192.416,228.187,192.699,230.26,194.282,231.033z"/>
						<path style="fill:#FFFFFF;" d="M196.256,228.348c-0.065-0.471-0.507-0.616-0.85-0.606c-0.372,0.011-0.754,0.384-0.737,0.782
							c0.025,0.584,0.542,0.838,0.908,0.785C195.956,229.253,196.329,228.88,196.256,228.348z"/>
					</g>
				</g>
			</g>
		</g>
	</g>
	<g>
		<path style="fill:#EDEDED;" d="M457.833,350.408c4.375-4.275-38.22-7.828-88.325-7.828s-86.411,3.859-86.411,7.828
			c0,3.969,38.282,5.202,88.387,5.202C440.584,355.61,452.425,355.693,457.833,350.408z"/>
		<g>
			<g>
				<path style="fill:#FFBDA8;" d="M431.655,336.199c-0.764-1.38-6.27-20.135-8.087-25.503c-0.353-1.042-0.601-2.508-0.795-4.218
					c-5.224,2.282-10.464,4.532-15.687,6.82c0.759,1.906,1.534,3.704,2.279,5.243c5.072,10.471,11.737,18.912,12.138,19.9
					c1.138,2.807,0.083,4.736,2.56,6.276c1.727,1.074,9.699,3.356,9.957,0.625c3.863,0.609,6.653,0.687,7.985,0.32
					c2.146-0.591,1.983-2.096,1.626-2.711C441.69,339.603,433.183,338.959,431.655,336.199z"/>
			</g>
			<path style="fill:#FFBDA8;" d="M335.052,328.447c-6.545-0.344-15.709,3.403-18.496,3.731c-2.864,0.337-3.244-1.825-5.433-1.642
				c-3.032,0.253-3.346,3.236-6.148,6.738c-1.011,1.263-5.348,2.148-4.799,4.382c0.55,2.235,9.124,0.153,12.295-0.803
				c1.563-0.471,11.97,2.002,22.581,1.804V328.447z"/>
			<g>
				<path style="fill:#FFCDC0;" d="M329.236,335.657c0,0-0.14-7.666,4.003-20.706c4.672-14.707,27.886-15.52,25.225,3.11
					c-2.263,15.843-12.112,32.025-21.884,33.565c-14.652,2.309-32.178-2.149-34.402-1.479c-3.711,1.119-13.746,3.555-14.389,0.94
					c-0.643-2.615,4.433-3.65,5.616-5.129c3.279-4.099,3.647-7.59,7.196-7.886c2.562-0.214,3.007,2.316,6.358,1.922
					C310.309,339.6,321.547,334.967,329.236,335.657z"/>
				<path style="fill:#FFBDA8;" d="M333.238,314.951c-1.674,5.269-2.641,9.642-3.209,13.006
					c4.969,1.483,17.639,11.002,17.339,16.335c5.39-6.514,9.695-16.432,11.094-26.231
					C361.125,299.431,337.91,300.244,333.238,314.951z"/>
			</g>
			<path style="fill:#00B09D;" d="M329.482,316.287c0,6.062,19.731,19.443,26.024,18.631c6.252-3.828,11.038-6.972,18.249-8.067
				c1.565-5.832-3.462-35.552-3.462-35.552c-5.693-2.514-17.391-6.026-26.763-1.626C331.647,295.25,329.482,316.287,329.482,316.287
				z"/>
			<path style="opacity:0.25;fill:#00B09D;" d="M370.292,291.298c-2.681-1.184-6.701-2.58-11.175-3.276
				c0.304,0.79,3.394,34.314-0.596,45.049c4.896-2.97,9.222-5.307,15.234-6.221C375.319,321.019,370.292,291.298,370.292,291.298z"
				/>
			<path style="fill:#FF95AB;" d="M366.891,332.995c19.535,3.21,60.405-17.573,60.405-35.339c0-8.576-5.401-18.631-18.117-18.631
				s-30.607,14.738-44.211,8.552C364.969,287.578,357.185,324.316,366.891,332.995z"/>
			<g>
				<path style="fill:#2F114D;" d="M446.502,254.878c-1.055-0.127-2.96-0.861-4.537-2.93c-1.577-2.068-1.422-3.853-1.325-4.912
					c0.165-1.81,4.534-9.923,10.507-2.089C457.12,252.782,447.882,255.044,446.502,254.878z"/>
				<path style="fill:#2F114D;" d="M446.502,254.878c-1.055-0.127-2.96-0.861-4.537-2.93c-1.577-2.068-1.422-3.853-1.325-4.912
					c0.165-1.81,4.534-9.923,10.507-2.089C457.12,252.782,447.882,255.044,446.502,254.878z"/>
				<path style="fill:#2F114D;" d="M414.54,278.926c0,0-12.551-29.11,11.189-33.274c25.299-4.436,30.089,19.624,20.956,28.579
					C442.729,278.111,417.511,282.609,414.54,278.926z"/>
				<path style="fill:#FFBDA8;" d="M427.117,286.869c0,0-0.528,3.927-1.403,9.223c-0.766,4.64-13.434-5.181-12.68-14.557
					c0.137-1.619,0.986-0.979,5.686-12.393C418.847,268.835,427.117,286.869,427.117,286.869z"/>
				<g>
					<path style="fill:#FF95AB;" d="M429.666,245.93c0.554,1.606-1.49,4.252-4.953,5.447c-3.463,1.194-7.035,0.484-7.589-1.122
						c-0.554-1.606,1.805-3.876,5.268-5.07C425.856,243.99,429.112,244.324,429.666,245.93z"/>
					<path style="fill:#2F114D;" d="M428.093,245.72c-0.495,1.055-1.916,2.785-4.612,3.715c-2.696,0.93-4.501,0.153-5.57-0.312
						c-1.828-0.795-8.77-8.138,1.443-11.659C429.567,233.943,428.741,244.34,428.093,245.72z"/>
				</g>
				<path style="fill:#FFCDC0;" d="M421.173,269.139c1.51-2.041,0.257-5.767-3.213-3.77c-3.448,1.985-2.903,8.281,0.342,7.6
					c-1.381,2.264-2.234,7.791-0.696,11.365c1.661,3.862,10.441,11.283,13.26,10.276c9.025-3.225,17.359-17.646,16.694-28.002
					C441.498,272.502,429.148,262.68,421.173,269.139z"/>
			</g>
			<g>
				<path style="fill:#FFBDA8;" d="M427.331,346.281c0,0,3.25,1.45,6.889,1.848c1.667,0.183,1.982,2.436-1.321,2.271
					C429.595,350.235,426.965,347.612,427.331,346.281z"/>
				<path style="fill:#FFCDC0;" d="M395.823,301.021c-0.194,7.266,3.925,19.271,7.349,26.341
					c5.072,10.471,11.737,18.912,12.138,19.9c1.139,2.807,0.083,4.736,2.56,6.276c3.055,1.899,14.203,1.486,17.34,0.991
					c3.138-0.495,2.848-2.509,2.395-3.055c-2.721-3.276-10.191-3.908-11.147-6.111c-0.628-1.447-7.266-20.478-9.083-25.845
					c-1.817-5.367-0.908-21.799-3.633-26.589C409.582,285.62,396.205,286.686,395.823,301.021z"/>
				<path style="fill:#FFBDA8;" d="M416.775,316.789c-1.036-6.867-0.677-19.716-3.034-23.86c-4.159-7.309-17.536-6.243-17.918,8.092
					c-0.161,6.025,2.645,15.273,5.56,22.298C405.109,319.637,410.245,317.173,416.775,316.789z"/>
				<path style="fill:#FFFFFF;" d="M405.927,285.823c-7.275,0.101-15.082,8.284-9.463,31.203c0,0,16.708-1.774,21.736-7.393
					C418.199,309.633,416.85,285.672,405.927,285.823z"/>
			</g>
		</g>
	</g>
	<g>
		<path style="fill:#EDEDED;" d="M730.593,346.139c0-2.913-20.196-5.274-45.11-5.274s-45.11,2.361-45.11,5.274
			c0,2.913,20.196,5.274,45.11,5.274S730.593,349.052,730.593,346.139z"/>
		<g>
			<path style="fill:#FFCDC0;" d="M722.089,211.317c2.055,14.209-0.421,43.215-0.729,44.807c-0.509,2.628,1.63,5.748,1.848,7.424
				c0.135,1.038-1.697,4.961-3.395,5.81c-1.697,0.849-7.921-0.805-8.792-1.698c-0.594-0.609-0.368-3.161-0.368-3.161
				s-1.286-1.604-1.155-3.563c0.13-1.959,2.872-3.199,3.395-4.635c0.522-1.436,0.783-21.479,0.457-27.093
				c-0.326-5.614,0.588-15.639,0.588-15.639S720.34,212.069,722.089,211.317z"/>
			<path style="fill:#FFBDA8;" d="M722.652,217.14c-0.128-2.111-0.311-4.079-0.563-5.823c-1.749,0.752-8.151,2.252-8.151,2.252
				s-0.733,8.064-0.648,13.778C715.304,223.239,718.694,219.579,722.652,217.14z"/>
			<g>
				<path style="fill:#00B09D;" d="M661.153,338.752c-0.553,2.545,0.204,6.746,3.265,6.877c3.061,0.131,3.537-4.505,3.307-6.267
					c-0.261-2.002-1.378-2.902-3.104-3.047C663.055,336.183,661.588,336.75,661.153,338.752z"/>
				<path style="fill:#FFCDC0;" d="M663.112,326.522c0,0-0.466,9.375-0.479,11.142c-0.018,2.437,3.395,2.742,3.482,0.392
					c0.087-2.35,0.653-10.663,0.479-11.534C666.42,325.651,663.373,325.347,663.112,326.522z"/>
				<path style="fill:#00B09D;" d="M652.094,338.653c-0.553,2.545,0.204,6.746,3.265,6.877c3.061,0.131,3.537-4.505,3.307-6.267
					c-0.261-2.002-1.378-2.902-3.104-3.047C653.996,336.085,652.529,336.651,652.094,338.653z"/>
				<path style="fill:#FFCDC0;" d="M654.052,326.423c0,0-0.466,9.375-0.479,11.142c-0.018,2.437,3.395,2.742,3.482,0.392
					c0.087-2.35,0.653-10.663,0.479-11.534C657.36,325.553,654.314,325.248,654.052,326.423z"/>
				<path style="fill:#FF95AB;" d="M654.149,310.595c-1.201,0.609-1.751,1.792-1.62,5.905c0.131,4.113-0.597,7.569,0.196,9.183
					c1.153,2.35,6.528,2.089,7.116,0c0.588-2.089-0.35-7.242,0.849-7.312c1.501-0.087,0.502,4.66,0.718,7.051
					c0.174,1.927,5.242,2.829,6.964,0.609c1.722-2.22,1.654-16.277-0.116-16.722C665.841,308.704,656.838,309.232,654.149,310.595z"
					/>
				<path style="fill:#FFCDC0;" d="M661.089,271.741c-2.076,1.175-4.238,17.389-4.778,19.563c-0.69,2.774-5.45,4.956-7.463,8.396
					c-1.606,2.743-4.319,16.253-4.307,23.173c0.006,3.566,4.605,4.214,4.57-0.326c-0.04-5.191,0.977-15.93,1.758-16.971
					c0.781-1.041,3.086,3.557,3.538,6.073c0.452,2.516,13.964,2.018,13.965-1.022c0.002-4.265-4.578-13.291-7.354-16.327
					c-2.776-3.036,1.315-16.861,2.95-18.651C663.967,275.647,662.345,271.03,661.089,271.741z"/>
				<path style="fill:#FFBDA8;" d="M662.036,280.044c0.695-2.16,1.429-3.847,1.931-4.397c0,0-1.622-4.617-2.879-3.906
					c-0.847,0.479-1.708,3.461-2.467,6.972C659.827,278.909,661.013,279.36,662.036,280.044z"/>
				<path style="fill:#E6E8F4;" d="M661.018,294.297c-0.997-1.09-1.105-3.574-0.763-6.39c-1.112-0.402-2.174-0.933-3.057-1.617
					c-0.412,2.417-0.724,4.357-0.887,5.013c-0.69,2.774-5.45,4.956-7.463,8.396c-0.468,0.799-1.03,2.527-1.59,4.724
					c1.212,0.524,2.278,1.508,3.154,2.671c0.155-0.782,0.311-1.324,0.458-1.52c0.781-1.041,3.086,3.557,3.538,6.073
					c0.452,2.516,13.964,2.018,13.965-1.022C668.373,306.359,663.794,297.334,661.018,294.297z"/>
				<path style="fill:#FF95AB;" d="M648.847,299.699c3.074,2.237,6.578,6.521,7.559,13.196c0.288,1.963,2.459,1.603,2.39,0.322
					c-0.125-2.343-2.202-11.473-8.67-15.396C649.134,297.22,647.981,299.069,648.847,299.699z"/>
				<path style="fill:#FF95AB;" d="M654.69,293.776c4.613,3.299,8.981,10.494,10.103,19.036c0.133,1.016,1.977,0.695,1.977-0.588
					c0.001-4.211-4.541-15.814-10.837-20.007C655.186,291.72,653.748,293.102,654.69,293.776z"/>
				<g>
					<path style="fill:#FFBDA8;" d="M651.462,289.754l-3.858,3.429l3.708,4.173c0.857,0.965,2.327,1.152,3.351,0.366
						c0.106-0.081,0.213-0.17,0.322-0.267c0.014-0.012,0.028-0.025,0.042-0.037c1.004-0.909,1.046-2.476,0.146-3.488
						L651.462,289.754z"/>
					<g>
						<path style="fill:#FFBDA8;" d="M652.767,281.279c-4.023-3.229-10.066-2.382-13.497,1.893
							c-3.431,4.275-2.95,10.358,1.073,13.587c4.023,3.229,10.066,2.382,13.497-1.893
							C657.271,290.591,656.791,284.508,652.767,281.279z"/>
						<path style="fill:#E6696B;" d="M653.488,280.838c-4.346-3.488-10.873-2.572-14.578,2.045
							c-3.706,4.617-3.187,11.188,1.159,14.675c4.346,3.488,4.385-10.225,0.125-13.645
							C647.428,289.719,657.834,284.326,653.488,280.838z"/>
						<g>
							<g>
								<path style="fill:#2F114D;" d="M636.524,289.405c-0.542,0.058-0.903,0.824-0.808,1.711c0.095,0.887,0.612,1.558,1.153,1.5
									c0.541-0.058,0.903-0.824,0.808-1.711C637.581,290.019,637.065,289.347,636.524,289.405z"/>
								<path style="fill:#E6696B;" d="M629.397,291.796c2.017,2.241,4.132,2.456,5.684,2.017c1.237-0.349,2.031-1.554,1.893-2.832
									c-0.138-1.278-1.169-2.286-2.452-2.365C632.912,288.518,630.891,289.178,629.397,291.796z"/>
							</g>
							<g>
								<path style="fill:#2F114D;" d="M644.761,279.141c-0.06-0.541,0.609-1.06,1.495-1.159c0.886-0.099,1.654,0.26,1.714,0.801
									c0.06,0.541-0.609,1.06-1.495,1.159C645.589,280.041,644.821,279.683,644.761,279.141z"/>
								<path style="fill:#E6696B;" d="M645.552,271.666c2.624,1.484,3.292,3.503,3.199,5.113c-0.073,1.283-1.078,2.319-2.355,2.461
									c-1.278,0.142-2.485-0.647-2.839-1.883C643.113,275.808,643.32,273.692,645.552,271.666z"/>
							</g>
						</g>
						<path style="fill:#FFCDC0;" d="M640.374,284.058c3.655,2.934,5.024,11.913,3.336,14.384c3.55,0.908,7.576-0.37,10.142-3.567
							c2.398-2.988,2.878-6.857,1.58-10.02C653.785,287.486,646.362,288.864,640.374,284.058z"/>
					</g>
				</g>
			</g>
			<g>
				<path style="fill:#FFBDA8;" d="M694.544,318.785c0.518,6.314,0.263,9.513,0.333,12.009c0.069,2.495,10.981,1.685,10.981,1.685
					s0.388-7.769,1.244-14.042L694.544,318.785z"/>
				<g>
					<path style="fill:#E6E8F4;" d="M694.868,328.813c-1.871,1.407-2.753,11.016-2.227,12.445
						c1.454,3.951,24.909,4.335,24.829,0.654c-0.052-2.432-1.794-4.856-3.6-6.2c-3.084-2.295-6.199-3.336-6.416-4.505
						c-0.139-0.755,0.629-2.318,0.254-3.347c-0.538-1.478-4.418-1.857-5.849-0.743c-1.08,0.84-0.796,1.786-0.71,3.288
						C701.276,332.592,695.054,332.821,694.868,328.813z"/>
				</g>
				<g>
					<path style="fill:#ACB3D8;" d="M717.118,342.649c-2.832,2.817-22.414,2.288-24.374-1.206c-0.002,0.005-0.006,0.01-0.008,0.015
						c-0.339,0.784-0.209,1.547-0.095,1.856c1.454,3.951,24.909,4.336,24.829,0.654c-0.007-0.334,0-1.095-0.347-1.314
						C717.121,342.652,717.12,342.65,717.118,342.649z"/>
				</g>
			</g>
			<g>
				<path style="fill:#FFBDA8;" d="M672.809,321.678c0.537,6.544,0.273,9.859,0.345,12.446c0.072,2.586,11.381,1.747,11.381,1.747
					s0.402-8.052,1.289-14.553L672.809,321.678z"/>
				<g>
					<path style="fill:#E6E8F4;" d="M673.144,332.071c-1.939,1.458-2.853,11.417-2.308,12.898
						c1.507,4.095,25.816,4.493,25.733,0.677c-0.055-2.521-1.86-5.033-3.731-6.426c-3.196-2.379-6.425-3.457-6.649-4.669
						c-0.144-0.782,0.652-2.402,0.263-3.469c-0.558-1.531-4.579-1.925-6.062-0.77c-1.119,0.871-0.825,1.851-0.736,3.407
						C679.785,335.988,673.337,336.225,673.144,332.071z"/>
				</g>
				<g>
					<path style="fill:#ACB3D8;" d="M696.204,346.411c-2.935,2.919-23.23,2.372-25.261-1.25c-0.002,0.005-0.006,0.011-0.008,0.015
						c-0.351,0.813-0.217,1.603-0.099,1.923c1.506,4.095,25.816,4.493,25.733,0.677c-0.007-0.346,0-1.135-0.36-1.362
						C696.208,346.414,696.206,346.412,696.204,346.411z"/>
				</g>
			</g>
			<path style="fill:#00B09D;" d="M662.909,250.552c0,0,7.991,69.125,8.504,73.825c0,0,3.529,2.003,10.36,2.003
				c6.83,0,8.046-2.003,8.046-2.003s2.574-30.814,3.259-43.505c0.57,8.25,0.2,37.851-0.061,42.029c0,0,2.409,1.373,9.097,1.373
				s8.002-1.612,8.002-1.612s6.856-63.599,5.55-73.754C714.499,239.829,665.643,236.266,662.909,250.552z"/>
			<path style="opacity:0.25;fill:#00B09D;" d="M715.345,264.791c0.462-7.425,0.649-13.335,0.321-15.882
				c-1.167-9.08-50.023-12.643-52.757,1.643c0,0,1.914,16.555,3.928,34.013C667.138,273.195,703.19,261.574,715.345,264.791z"/>
			<path style="fill:#FF95AB;" d="M673.438,181.826c-1.081-0.733-5.938-2.025-12.283,8.534c-3.022,5.029-4.963,11.675-7.588,24.294
				c0,0,9.35,4.805,12.875,6.278c0,0-2.35,27.893-1.958,33.201c0,0,34.34,11.098,53.403,0c0,0-1.958-28.464-2.742-34.47
				c0,0,6.92-6.92,7.573-9.793c0,0-4.009-14.648-10.315-23.307c-3.51-4.82-9.475-6.347-10.791-5.27
				C691.761,185.969,682.392,185.12,673.438,181.826z"/>
			<path style="fill:#FFCDC0;" d="M655.003,215.387c-0.704,13.48,3.708,46.507,4.017,48.1c0.509,2.628-1.631,5.748-1.848,7.424
				c-0.135,1.038,1.698,4.962,3.395,5.811c1.697,0.848,7.921-0.805,8.792-1.698c0.594-0.609,0.368-3.161,0.368-3.161
				s1.286-1.605,1.155-3.563c-0.131-1.959-2.873-3.199-3.395-4.635c-0.522-1.436-0.783-21.479-0.457-27.093
				c0.327-5.615-0.588-15.639-0.588-15.639S656.752,216.139,655.003,215.387z"/>
			<path style="fill:#FFBDA8;" d="M666.823,226.064c-0.18-2.92-0.381-5.133-0.381-5.133s-9.69-4.792-11.438-5.544
				c-0.097,1.856-0.094,4.091-0.021,6.554C655.146,221.969,664.262,224.114,666.823,226.064z"/>
			<path style="fill:#FFBDA8;" d="M669.293,268.558c0.412,1.377,0.433,3.304,0.433,3.304s1.286-1.605,1.155-3.563
				c-0.078-1.169-1.087-2.082-1.998-2.934C668.268,264.789,668.85,267.082,669.293,268.558z"/>
			<g>
				<path style="fill:#FFCDC0;" d="M678.193,168.827c0,0,0.67,7.812-0.273,10.194c-0.554,1.47-4.109,2.732-5.799,3.238
					c0,0,5.244,13.204,17.91,13.204c12.665,0,13.144-13.519,13.144-13.519s-2.785-0.974-3.917-2.149
					c-0.812-0.844-0.609-5.223-0.609-5.223S679.847,166.564,678.193,168.827z"/>
				<path style="fill:#FFBDA8;" d="M678.406,175.393c4.027,7.576,18.056,9.364,23.629,6.092c-0.904-0.395-2.117-1.005-2.777-1.69
					c-0.812-0.844-0.609-5.223-0.609-5.223s-18.802-8.008-20.456-5.745C678.193,168.827,678.494,172.355,678.406,175.393z"/>
				<g>
					<g>
						<path style="fill:#2F114D;" d="M707.527,120.806c0.078,1.196,0.789,3.386,3.022,5.289c2.233,1.903,4.253,1.837,5.451,1.793
							c2.049-0.075,11.454-4.499,2.996-11.706C710.538,108.976,707.425,119.242,707.527,120.806z"/>
					</g>
					<g>
						<path style="fill:#2F114D;" d="M707.527,120.806c0.078,1.196,0.789,3.386,3.022,5.289c2.233,1.903,4.253,1.837,5.451,1.793
							c2.049-0.075,11.454-4.499,2.996-11.706C710.538,108.976,707.425,119.242,707.527,120.806z"/>
					</g>
				</g>
				<path style="fill:#FFCDC0;" d="M715.797,129.221c-6.793-12.319-35.776-15.124-44.353-1.04
					c-4.99,8.193-1.401,18.548,0.352,24.826c-1.512-1.758-5.438-1.763-6.512,0.849c-2.023,4.916,5.012,10.887,8.098,7.254
					c2.167,11.806,19.072,20.623,35.053,14.884c9.777-3.511,7.537-16.446,7.754-24.293
					C716.297,147.799,720.933,138.535,715.797,129.221z"/>
				<path style="fill:#2F114D;" d="M674.015,156.118c-0.261-10.097,27.441-22.498,27.811-29.095
					c5.223,6.463,17.087,9.855,15.668,18.171c0,0,6.311-14.842-7.616-23.895c-13.927-9.053-37.169-6.267-43.262,8.182
					c-5.754,13.646,0.435,22.632,0.435,22.632C667.605,151.922,671.482,151.233,674.015,156.118z"/>
				<g>
					<path style="fill:#FF95AB;" d="M680.925,118.274c1.248,1.669-0.149,5.523-3.746,8.213c-3.598,2.69-8.034,3.197-9.282,1.528
						c-1.248-1.668,0.658-5.202,4.255-7.892C675.75,117.434,679.678,116.606,680.925,118.274z"/>
					<path style="fill:#2F114D;" d="M679.01,118.617c-0.184,1.417-1.195,3.969-3.996,6.063c-2.801,2.094-5.199,1.863-6.621,1.719
						c-2.432-0.245-13.285-6.222-2.676-14.154C676.325,104.313,679.25,116.763,679.01,118.617z"/>
				</g>
			</g>
			<g style="opacity:0.5;">
				<path style="fill:#FF95AB;" d="M666.442,220.931c0,0-0.95-10.611-1.478-13.606c-0.331-1.879-1.457,11.741-6.764,9.569
					c-0.253-0.104-0.391-0.229-0.583-0.282C660.769,218.124,664.552,220.1,666.442,220.931z"/>
				<path style="fill:#FF95AB;" d="M714.022,206.13c0.377,3.39,1.122,13.532,1.122,13.532s3.007-3.012,5.245-5.887
					C715.088,215.761,713.646,202.742,714.022,206.13z"/>
			</g>
		</g>
	</g>
	<g>
		<path style="fill:#EDEDED;" d="M598.224,346.146c0-2.913-23.894-5.274-53.37-5.274c-29.475,0-53.37,2.361-53.37,5.274
			c0,2.913,23.895,5.274,53.37,5.274C574.33,351.42,598.224,349.059,598.224,346.146z"/>
		<g>
			<g>
				<g>
					<path style="fill:#D3D5E0;" d="M531.815,329.278c-0.076-1.988-6.355-7.259-7.607-7.585c-3.462-0.9-15.096,15.285-12.488,17.014
						c1.723,1.142,4.259,1.101,6.072,0.492c3.096-1.04,5.332-2.711,6.253-2.295C524.639,337.173,528.927,327.466,531.815,329.278z"
						/>
				</g>
				<g>
					<path style="fill:#9CA2C4;" d="M511.375,338.104c-0.594-3.342,9.264-16.754,12.653-16.428
						c-0.002-0.004-0.004-0.009-0.007-0.012c-0.383-0.617-0.978-0.895-1.249-0.966c-3.462-0.9-15.097,15.285-12.488,17.014
						c0.236,0.157,0.764,0.531,1.085,0.395C511.371,338.104,511.373,338.104,511.375,338.104z"/>
				</g>
				<path style="fill:#009C8B;" d="M527.923,324.368c-3.329,1.472-5.627,9.566-4.361,12.942c3.25,1.124,22.695,5.843,33.146,3.385
					v-16.89C556.707,323.805,536.309,320.661,527.923,324.368z"/>
			</g>
			<g>
				<path style="fill:#FFCDC0;" d="M511.02,261.288c0,0-3.925,5.865-4.581,7.832c-0.813,2.438-1.294,24.975-1.016,27.635
					c0.277,2.66-1.83,6.384-1.496,8.276c0.332,1.884,1.791,5.04,4.175,5.726c2.069,0.596,9.206,1.631,9.885-0.047
					c0.628-1.552,0.238-3.278,0.118-4.236c2.041-0.076,1.524-3.955,0.6-5.655c-0.512-0.941-4.156-4.101-4.451-4.988
					c-0.296-0.887,1.754-19.087,2.53-20.357c1.052-1.72,8.605-7.94,8.605-7.94L511.02,261.288z"/>
				<path style="fill:#FFBDA8;" d="M507.523,267.828c0.005,0.002,0.005,0.003,0.009,0.005c0.013,0.004,0.015,0.004,0.03,0.009
					c0.203,0.065,0.404,0.134,0.609,0.195c0.344,0.102,0.692,0.192,1.038,0.289c0.952,0.268,1.867,0.627,2.747,1.08
					c1.493,0.768,2.862,1.748,4.099,2.885c0.655,0.602,1.239,1.258,1.791,1.942c2.381-2.444,7.543-6.696,7.543-6.696l-14.368-6.247
					c0,0-2.611,3.91-3.924,6.415C507.237,267.751,507.389,267.764,507.523,267.828z"/>
				<path style="fill:#FFBDA8;" d="M517.014,301.102c0.259,1.201,0.776,3.233,1.091,5.371c1.441-0.054,1.595-1.999,1.243-3.738
					C518.917,303.559,516.959,300.848,517.014,301.102z"/>
			</g>
			<g>
				<path style="fill:#FFCDC0;" d="M569.309,261.16c0,0,3.071,12.685,3.206,14.637c0.168,2.419,8.536,21.27,9.735,23.49
					c1.198,2.22,0.957,5.649,1.929,7.179c0.967,1.524,3.115,4.328,5.441,4.07c2.019-0.224,8.615-1.887,8.604-3.595
					c-0.01-1.579-0.971-2.944-1.42-3.737c1.753-0.8-0.093-3.997-1.509-5.147c-0.785-0.637-5.099-2.082-5.675-2.749
					c-0.576-0.667-3.582-19.37-4.737-22.566c-0.646-1.789-3.167-15.344-3.167-15.344L569.309,261.16z"/>
				<path style="fill:#FFBDA8;" d="M583.543,304.511c0.149,0.772,0.327,1.469,0.636,1.956c0.967,1.524,3.116,4.328,5.441,4.07
					c2.019-0.224,8.615-1.887,8.604-3.595c-0.01-1.531-0.905-2.85-1.37-3.652C596.758,303.298,589.592,305.558,583.543,304.511z"/>
				<path style="fill:#FFBDA8;" d="M584.835,272.583c-0.708-2.225-3.119-15.187-3.119-15.187l-12.407,3.764
					c0,0,3.071,12.685,3.206,14.637c0.062,0.892,1.239,4.015,2.755,7.708C575.577,282.136,576.866,274.776,584.835,272.583z"/>
				<g>
					<path style="fill:#FFCDC0;" d="M590.496,310.148c-0.601-0.647-1.753-1.406-2.673-2.502c-0.522-0.6-1.976-0.486-1.893,0.482
						c0.093,1.084,1.117,2.354,2.293,3.189C589.483,312.211,591.229,310.937,590.496,310.148z"/>
					<path style="fill:#FFCDC0;" d="M593.032,309.154c-0.704-0.759-2.077-1.914-3.155-3.198c-0.612-0.703-2.295-0.472-2.198,0.663
						c0.109,1.27,1.311,2.927,2.69,3.905C591.845,311.572,593.891,310.078,593.032,309.154z"/>
					<path style="fill:#FFCDC0;" d="M595.893,308.2c-0.705-0.759-2.269-1.833-3.348-3.116c-0.612-0.703-2.466-0.582-2.369,0.553
						c0.109,1.27,1.674,2.955,3.053,3.934C594.706,310.618,596.752,309.125,595.893,308.2z"/>
					<path style="fill:#FFCDC0;" d="M598.013,306.207c-0.645-0.694-1.286-0.872-2.563-1.947c-0.653-0.55-2.121-0.522-2.032,0.518
						c0.1,1.163,1.199,2.527,2.462,3.423C597.232,309.16,598.8,307.054,598.013,306.207z"/>
				</g>
			</g>
			<g>
				<g>
					<path style="fill:#E6E8F4;" d="M521.823,338.07c-0.079-2.088-6.676-7.626-7.991-7.968
						c-3.637-0.945-15.859,16.057-13.119,17.873c1.81,1.2,4.474,1.156,6.379,0.517c3.253-1.093,5.602-2.847,6.569-2.411
						C514.285,346.363,518.789,336.166,521.823,338.07z"/>
				</g>
				<g>
					<path style="fill:#ACB3D8;" d="M500.352,347.341c-0.624-3.51,9.732-17.6,13.292-17.258c-0.002-0.004-0.005-0.009-0.007-0.013
						c-0.403-0.648-1.028-0.941-1.312-1.015c-3.637-0.945-15.859,16.057-13.119,17.873c0.248,0.165,0.803,0.558,1.14,0.414
						C500.347,347.342,500.35,347.342,500.352,347.341z"/>
				</g>
			</g>
			<g>
				<path style="fill:#00B09D;" d="M523.872,301.81c-1.26,9.502,3.42,28.171,4.651,30.363c-0.867,0.253-9.952,0.074-10.788,0.739
					c-2.993,2.379-5.911,10.049-4.581,13.596c4.625,1.6,40.507,10.151,41.76-2.544c7.389,1.035,15.637-0.855,17.292-6.387
					c1.097-3.667,4.527-27.444,3.25-37.374C574.315,291.324,526.545,287.841,523.872,301.81z"/>
			</g>
			<g style="opacity:0.25;">
				<path style="fill:#00B09D;" d="M575.486,312.579c0.308-4.789,0.371-9.263-0.03-12.376c-1.141-8.878-48.911-12.362-51.585,1.607
					c-0.578,4.357,0.097,10.635,1.112,16.375C524.779,310.695,552.117,318.774,575.486,312.579z"/>
				<path style="fill:#00B09D;" d="M554.914,343.963c3.499,0.49,7.183,0.315,10.276-0.583c-7.407,1.501-8.291-19.198-9.032-16.084
					C555.418,330.399,556.551,336.113,554.914,343.963z"/>
			</g>
			<path style="fill:#FF95AB;" d="M538.68,236.155c-9.443,2.03-24.583,15.989-28.876,25.871c0,0,7.843,10.437,10.539,11.231
				c0.929,0.274,6.114-3.916,6.997-3.547c0,0-7.684,24.63-5.517,35.861c0,0,36.334,12.231,54.974,1.379
				c0,0-2.562-25.221-1.233-34.482c0,0,9.616-4.613,10.254-7.422c0,0-7.487-28.214-20.423-29.164
				C555.764,240.457,547.435,239.376,538.68,236.155z"/>
			<g>
				<path style="fill:#FFCDC0;" d="M543.903,224.6c0,0,0.576,6.721-0.234,8.77c-0.477,1.265-3.535,2.351-4.989,2.786
					c0,0,4.512,11.359,15.408,11.359c10.896,0,11.308-11.631,11.308-11.631s-2.396-0.838-3.37-1.849
					c-0.699-0.726-0.524-4.493-0.524-4.493S545.326,222.653,543.903,224.6z"/>
				<path style="fill:#FFBDA8;" d="M561.766,244.588c3.438-3.445,3.629-8.704,3.629-8.704s-2.396-0.838-3.37-1.849
					c-0.699-0.726-0.524-4.493-0.524-4.493s-16.175-6.89-17.598-4.942c0,0,0.576,6.721-0.234,8.77
					c-0.258,0.684-1.271,1.314-2.376,1.819C542.458,238.412,550.775,244.366,561.766,244.588z"/>
				<g>
					<g>
						<path style="fill:#2F114D;" d="M570.998,191.228c-0.002,1.031,0.481,2.952,2.288,4.715c1.807,1.762,3.544,1.823,4.575,1.854
							c1.763,0.054,10.091-3.2,3.248-9.875C574.267,181.247,571.001,189.879,570.998,191.228z"/>
					</g>
					<g>
						<path style="fill:#2F114D;" d="M570.998,191.228c-0.002,1.031,0.481,2.952,2.288,4.715c1.807,1.762,3.544,1.823,4.575,1.854
							c1.763,0.054,10.091-3.2,3.248-9.875C574.267,181.247,571.001,189.879,570.998,191.228z"/>
					</g>
				</g>
				<path style="fill:#FFCDC0;" d="M577.61,198.929c-5.118-10.967-29.834-15.05-38.011-3.457c-4.757,6.744-2.275,15.84-1.133,21.329
					c-1.196-1.596-4.565-1.828-5.639,0.352c-2.02,4.103,3.672,9.635,6.532,6.695c1.178,10.259,15.178,18.804,29.227,14.803
					c8.596-2.448,7.42-13.681,8.06-20.404C576.965,214.904,581.48,207.221,577.61,198.929z"/>
				<path style="fill:#2F114D;" d="M540.191,219.6c0.359-8.682,24.855-17.725,25.554-23.366c4.109,5.85,14.097,9.447,12.398,16.503
					c0,0,6.276-12.375-5.156-20.95c-11.431-8.576-31.542-7.529-37.607,4.522c-5.728,11.38-0.935,19.451-0.935,19.451
					C534.932,215.628,538.299,215.26,540.191,219.6z"/>
				<g>
					<path style="fill:#FF95AB;" d="M548.31,187.517c0.974,1.504-0.447,4.732-3.691,6.833c-3.243,2.101-7.081,2.279-8.055,0.775
						c-0.974-1.504,0.865-4.427,4.109-6.528C543.917,186.496,547.336,186.012,548.31,187.517z"/>
					<path style="fill:#2F114D;" d="M546.647,187.699c-0.24,1.206-1.255,3.338-3.781,4.973c-2.525,1.635-4.57,1.298-5.783,1.093
						c-2.073-0.351-11.044-6.109-1.479-12.304S546.96,186.122,546.647,187.699z"/>
				</g>
			</g>
		</g>
	</g>
</g>
</svg>
